<?xml version="1.0" encoding="utf-8"?>
<!-- Svg Vector Icons : http://www.onlinewebfonts.com/icon -->
<!DOCTYPE svg PUBLIC "-//W3C//DTD SVG 1.1//EN" "http://www.w3.org/Graphics/SVG/1.1/DTD/svg11.dtd">
<svg version="1.1" xmlns="http://www.w3.org/2000/svg" xmlns:xlink="http://www.w3.org/1999/xlink" x="0px" y="0px" viewBox="0 0 256 256" enable-background="new 0 0 256 256" xml:space="preserve">
<metadata> Svg Vector Icons : http://www.onlinewebfonts.com/icon </metadata>
<g><g><path fill="#000000" d="M128,65c-17.4,0-35.4,14.5-35.4,27.5v19.7c0,8.6,3.9,26,14.9,34.8l-34.6,16.3c0,0-7.9,3.5-7.9,7.9v11.8c0,4.4,3.5,7.9,7.9,7.9h110.1c4.3,0,7.9-3.5,7.9-7.9v-11.8c0-4.6-7.9-7.9-7.9-7.9l-34.3-16.3c10.9-8.6,14.6-25.4,14.6-34.9V92.6C163.4,79.5,145.4,65,128,65"/><path fill="#000000" d="M63.6,155.8c7-5.4,9.3-15.9,9.3-21.8v-12.3c0-8.1-11.5-17.2-22.7-17.2s-22.7,9.1-22.7,17.2l0,0V134c0,5.4,2.5,16.2,9.6,21.8L15,165.9c0,0-5,2.2-5,4.9v7.4c0,2.7,2.3,4.9,5,4.9h35.2"/><path fill="#000000" d="M192.4,155.8c-7-5.4-9.3-15.9-9.3-21.8v-12.3c0-8.1,11.5-17.2,22.7-17.2c11.1,0,22.7,9.1,22.7,17.2l0,0V134c0,5.4-2.5,16.2-9.6,21.8l22.1,10.2c0,0,5,2.2,5,4.9v7.4c0,2.7-2.3,4.9-5,4.9h-35.2"/></g></g>
</svg>